<?xml version="1.0" standalone="no"?>
<!DOCTYPE svg PUBLIC "-//W3C//DTD SVG 20010904//EN"
 "http://www.w3.org/TR/2001/REC-SVG-20010904/DTD/svg10.dtd">
<svg version="1.0" xmlns="http://www.w3.org/2000/svg"
 width="445.000000pt" height="445.000000pt" viewBox="0 0 445.000000 445.000000"
 preserveAspectRatio="xMidYMid meet">
<metadata>
Created by potrace 1.14, written by Peter Selinger 2001-2017
</metadata>
<g transform="translate(0.000000,445.000000) scale(0.100000,-0.100000)"
fill="#000000" stroke="none">
<path d="M2180 4206 c-236 -62 -352 -311 -249 -532 13 -26 49 -75 81 -109 67
-72 86 -110 88 -180 4 -105 7 -100 -62 -114 -86 -18 -198 -62 -293 -116 l-79
-45 -58 57 c-80 79 -103 130 -93 208 32 249 -6 387 -145 525 -237 236 -627
193 -813 -90 -104 -159 -110 -387 -14 -550 37 -63 139 -167 188 -192 138 -68
234 -85 362 -63 131 22 184 6 275 -87 l53 -55 -42 -69 c-63 -103 -126 -269
-132 -346 -1 -19 -11 -21 -101 -19 -76 1 -114 18 -182 82 -34 31 -79 66 -101
77 -192 98 -417 27 -513 -163 -29 -56 -34 -78 -36 -150 -5 -117 27 -204 101
-280 81 -83 178 -120 298 -113 93 6 167 39 238 107 76 74 112 90 202 92 41 1
79 -1 85 -5 5 -3 12 -24 16 -46 14 -91 53 -187 124 -309 l43 -74 -83 -84
c-100 -102 -129 -120 -204 -134 -114 -21 -202 -88 -247 -188 -32 -71 -29 -181
7 -254 92 -189 342 -234 492 -89 63 62 88 124 98 242 5 69 28 109 109 191 74
75 75 75 98 58 80 -57 269 -137 369 -154 19 -3 36 -8 39 -10 10 -11 0 -148
-14 -182 -9 -21 -38 -60 -64 -88 -87 -91 -121 -161 -126 -262 -12 -226 175
-412 400 -396 162 11 288 111 336 267 43 136 6 272 -102 384 -72 75 -83 106
-80 228 l1 51 58 12 c82 18 227 78 298 122 34 22 65 39 69 39 5 0 34 -26 65
-59 68 -69 95 -130 86 -193 -15 -115 -18 -216 -7 -271 40 -188 196 -352 386
-404 68 -18 197 -17 269 2 170 45 307 173 368 343 28 81 33 220 10 304 -56
200 -223 353 -426 389 -53 9 -91 9 -177 -2 -140 -16 -168 -8 -254 73 -36 33
-65 64 -65 69 0 5 22 47 49 94 43 74 98 222 116 308 5 27 7 27 81 27 94 0 132
-16 206 -86 95 -91 202 -128 322 -112 126 17 233 93 288 206 31 62 33 74 33
167 0 87 -3 107 -27 157 -76 163 -253 252 -424 213 -74 -17 -130 -49 -201
-116 -71 -65 -105 -79 -205 -79 -66 0 -68 1 -74 28 -26 123 -87 274 -143 356
l-29 44 111 109 c108 106 114 110 180 126 80 21 135 53 172 102 78 102 72 252
-14 343 -60 62 -113 86 -196 85 -138 -1 -233 -77 -265 -213 -7 -30 -19 -68
-27 -84 -14 -27 -194 -216 -206 -216 -3 0 -35 18 -72 41 -80 48 -194 95 -287
118 l-68 16 0 78 c0 97 15 135 84 207 60 63 83 102 102 175 41 154 -24 325
-157 410 -82 53 -208 74 -299 51z"/>
</g>
</svg>
